<?xml version="1.0" standalone="no"?>
<!DOCTYPE svg PUBLIC "-//W3C//DTD SVG 20010904//EN"
 "http://www.w3.org/TR/2001/REC-SVG-20010904/DTD/svg10.dtd">
<svg version="1.0" xmlns="http://www.w3.org/2000/svg"
 width="896.000000pt" height="896.000000pt" viewBox="0 0 896.000000 896.000000"
 preserveAspectRatio="xMidYMid meet">
<metadata>
Created by potrace 1.11, written by Peter Selinger 2001-2013
</metadata>
<g transform="translate(0.000000,896.000000) scale(0.100000,-0.100000)"
fill="#000000" stroke="none">
<path d="M4265 8893 c-88 -36 -171 -70 -185 -76 -14 -5 -27 -11 -30 -12 -21
-7 -82 -33 -145 -60 -16 -8 -131 -55 -255 -105 -124 -51 -241 -99 -260 -107
-19 -8 -44 -19 -55 -24 -11 -4 -49 -20 -85 -35 -36 -14 -76 -31 -90 -37 -14
-6 -28 -11 -31 -11 -3 -1 -28 -11 -55 -23 -27 -12 -128 -54 -224 -94 -96 -39
-194 -80 -217 -90 -23 -10 -48 -19 -55 -19 -8 0 -18 -4 -24 -8 -5 -5 -27 -16
-49 -25 -22 -8 -58 -23 -80 -33 -22 -10 -42 -18 -45 -19 -7 -1 -258 -104 -307
-126 -23 -11 -44 -19 -46 -19 -3 0 -22 -8 -43 -17 -22 -9 -41 -17 -44 -18 -3
-1 -16 -6 -30 -12 -118 -50 -441 -183 -444 -183 -2 0 -30 -12 -62 -27 -33 -14
-65 -27 -72 -29 -6 -1 -33 -13 -60 -25 -26 -13 -51 -24 -57 -24 -5 0 -27 -8
-49 -18 -21 -9 -40 -17 -41 -17 -1 0 -24 -10 -51 -22 -27 -12 -52 -21 -56 -20
-5 1 -8 -2 -8 -6 0 -5 -6 -9 -12 -9 -7 0 -29 -7 -48 -16 -32 -15 -132 -56
-385 -159 -187 -76 -212 -91 -234 -145 -8 -21 -10 -49 -6 -85 4 -29 9 -66 11
-83 3 -30 9 -77 19 -145 3 -19 12 -84 21 -145 8 -60 17 -126 20 -145 3 -19 7
-51 10 -70 2 -19 6 -44 8 -55 3 -11 8 -42 11 -70 3 -27 8 -66 10 -85 3 -19 8
-53 11 -75 3 -22 7 -51 9 -65 3 -14 7 -49 11 -78 3 -29 8 -63 10 -75 3 -12 7
-40 9 -62 3 -22 9 -67 16 -100 6 -34 10 -65 9 -70 -2 -6 -2 -12 0 -15 2 -7 6
-33 20 -130 24 -170 27 -194 35 -255 3 -27 8 -57 10 -65 3 -8 7 -42 11 -74 3
-33 8 -69 10 -80 3 -12 6 -37 9 -56 7 -60 15 -114 20 -145 4 -16 8 -47 10 -70
2 -22 6 -50 9 -62 3 -12 7 -48 11 -80 3 -32 8 -67 10 -78 2 -11 7 -40 10 -65
3 -25 7 -54 9 -65 4 -22 13 -85 21 -155 3 -25 7 -56 10 -69 2 -13 7 -49 11
-80 3 -31 8 -58 9 -61 2 -3 6 -34 10 -70 4 -36 9 -74 11 -85 3 -11 7 -40 10
-65 2 -25 7 -56 10 -70 5 -24 7 -43 19 -135 3 -22 7 -49 9 -60 2 -11 7 -47 10
-80 4 -33 9 -67 11 -75 5 -20 17 -107 21 -150 1 -19 3 -35 4 -35 3 0 7 -30 14
-90 3 -33 8 -71 11 -85 6 -29 13 -79 20 -138 3 -24 7 -53 10 -65 3 -12 7 -47
10 -77 6 -71 32 -153 56 -179 11 -11 19 -24 19 -28 1 -4 53 -48 116 -98 64
-49 121 -95 127 -100 7 -6 32 -26 57 -45 25 -19 47 -37 50 -40 3 -3 23 -18 45
-35 22 -16 42 -32 45 -35 3 -3 57 -46 120 -95 63 -49 126 -100 140 -112 14
-13 28 -23 32 -23 3 0 14 -7 23 -16 9 -9 62 -52 118 -96 106 -83 161 -126 181
-143 6 -5 32 -26 56 -45 25 -19 50 -38 55 -42 68 -54 200 -158 226 -178 18
-14 38 -31 45 -38 7 -6 17 -12 22 -12 6 0 12 -4 14 -9 2 -5 32 -31 68 -60 36
-28 70 -54 75 -59 6 -4 75 -59 155 -122 80 -62 147 -117 148 -122 2 -4 8 -8
13 -8 5 0 19 -9 31 -19 21 -18 185 -149 283 -226 21 -16 64 -50 95 -75 31 -25
72 -56 90 -70 18 -14 38 -30 44 -35 6 -6 31 -26 56 -45 55 -43 79 -62 94 -75
6 -6 27 -22 46 -35 19 -13 40 -29 45 -36 6 -6 39 -33 75 -60 36 -26 70 -53 76
-59 6 -5 26 -22 45 -36 31 -24 210 -165 364 -287 33 -26 65 -51 72 -57 32 -28
77 -60 82 -58 3 1 11 -2 16 -6 20 -14 74 -12 105 4 28 15 62 40 96 73 7 6 17
12 22 12 6 0 12 4 14 8 2 5 35 33 73 63 39 29 81 64 95 76 14 13 28 23 31 23
3 0 17 10 31 22 43 39 78 68 82 68 2 0 15 9 28 20 12 11 73 59 133 106 61 48
112 89 115 93 3 3 32 26 65 51 33 24 65 49 71 55 6 5 23 19 38 30 16 11 33 25
40 30 6 6 47 38 91 73 44 35 87 68 95 75 8 7 35 28 60 47 25 19 50 39 56 45 6
5 26 21 44 35 79 60 185 146 188 152 2 5 10 8 18 8 8 0 14 4 14 8 0 5 19 22
43 39 33 24 265 207 487 384 14 11 70 54 124 97 55 42 110 87 123 99 13 12 23
19 23 15 0 -4 4 -2 8 4 4 5 84 70 177 144 94 74 233 184 310 245 77 61 171
135 209 164 38 30 76 60 85 67 9 7 52 41 96 76 44 34 82 65 85 68 3 3 23 19
45 36 22 16 48 36 58 44 64 50 111 124 122 190 3 19 8 46 10 60 3 14 7 45 10
70 3 25 8 56 10 70 2 14 6 48 10 75 3 28 7 61 9 75 7 37 14 88 21 145 4 28 8
61 11 75 5 31 15 97 19 130 1 14 6 52 10 85 3 33 8 67 10 75 5 19 12 60 20
125 3 28 8 63 11 79 3 16 7 48 9 70 6 49 12 90 19 131 3 17 8 50 11 75 8 68
12 101 19 140 14 88 22 145 30 215 3 28 7 59 10 70 2 11 7 45 10 76 4 31 9 67
11 80 5 24 11 70 20 142 3 23 8 53 11 67 6 33 16 118 18 153 0 15 3 27 6 27 3
0 6 12 6 28 1 33 13 122 19 142 2 8 6 40 9 70 3 30 8 66 11 80 3 14 7 43 10
65 4 38 8 71 21 153 7 44 11 81 20 146 3 27 8 58 10 70 3 12 7 44 9 71 2 28 5
50 5 50 2 0 9 37 15 85 3 25 8 59 11 75 3 17 7 46 9 65 2 19 6 53 9 75 4 22 9
58 12 80 8 57 15 104 19 127 4 20 15 107 20 158 2 14 4 25 5 25 1 0 3 11 5 25
1 14 5 45 9 70 4 25 9 61 11 80 2 19 6 49 9 65 29 176 28 243 -5 282 -27 33
-42 41 -209 108 -63 26 -128 53 -145 60 -16 7 -136 56 -265 109 -129 53 -244
101 -255 106 -11 5 -49 21 -85 36 -36 14 -78 32 -95 38 -16 7 -55 23 -85 36
-30 13 -68 29 -85 36 -16 7 -54 22 -84 34 -30 11 -74 30 -97 41 -24 10 -46 19
-49 19 -3 0 -25 9 -48 19 -23 10 -82 35 -132 55 -49 20 -99 41 -110 46 -11 5
-56 23 -100 41 -44 17 -84 36 -89 40 -6 5 -16 9 -23 9 -7 0 -37 11 -67 25 -30
14 -57 25 -59 25 -3 0 -22 8 -43 17 -22 9 -41 17 -44 18 -3 0 -26 10 -52 22
-25 12 -57 24 -70 28 -12 4 -27 11 -33 14 -5 4 -29 13 -52 21 -24 7 -43 17
-43 22 0 4 -6 8 -14 8 -8 0 -106 38 -218 86 -111 47 -210 87 -219 89 -9 2 -35
13 -57 24 -22 11 -42 17 -46 14 -3 -4 -6 -1 -6 5 0 7 -3 11 -8 9 -7 -2 -50 15
-149 60 -28 12 -58 23 -65 23 -8 0 -18 4 -23 9 -6 5 -41 21 -80 36 -38 15 -74
30 -80 33 -5 4 -14 7 -20 8 -10 2 -129 51 -190 79 -16 7 -66 28 -110 45 -44
18 -98 40 -120 50 -142 64 -233 94 -295 96 -60 2 -78 -3 -225 -63z m289 -1218
c16 -3 43 -13 60 -23 17 -9 34 -17 39 -18 4 -1 9 -2 12 -3 3 0 8 -1 13 -2 4 0
13 -6 21 -12 7 -6 18 -12 25 -13 6 -1 46 -18 89 -38 42 -20 79 -36 81 -36 2 0
37 -15 78 -34 40 -19 147 -66 238 -106 91 -40 194 -86 230 -102 69 -32 112
-51 120 -53 3 0 34 -14 70 -30 36 -17 67 -30 70 -31 3 0 32 -13 65 -28 33 -15
132 -59 220 -98 88 -39 188 -83 223 -99 35 -16 65 -29 67 -29 2 0 32 -13 67
-29 78 -36 112 -51 318 -141 91 -40 185 -81 210 -93 25 -12 47 -21 50 -22 7
-2 54 -22 186 -82 88 -39 113 -55 137 -88 28 -38 29 -43 23 -120 -3 -44 -7
-91 -10 -105 -4 -23 -12 -97 -21 -190 -4 -44 -14 -124 -20 -170 -3 -19 -7 -55
-10 -80 -2 -25 -7 -67 -10 -95 -4 -27 -8 -68 -10 -90 -2 -22 -7 -65 -11 -95
-4 -30 -8 -74 -8 -97 -1 -24 -3 -43 -6 -43 -4 0 -6 -10 -7 -22 0 -24 -10 -120
-17 -173 -2 -16 -7 -57 -10 -90 -4 -33 -9 -69 -11 -80 -2 -11 -7 -49 -10 -85
-3 -36 -8 -81 -10 -100 -4 -32 -10 -81 -20 -170 -8 -64 -16 -144 -21 -195 -2
-27 -7 -65 -9 -82 -13 -89 -24 -183 -31 -258 -2 -22 -5 -53 -8 -70 -5 -38 -14
-115 -31 -280 -3 -33 -8 -67 -10 -75 -3 -8 -7 -42 -9 -75 -13 -156 -24 -196
-67 -256 -18 -26 -244 -201 -384 -298 -27 -19 -51 -38 -53 -43 -2 -4 -8 -8
-13 -8 -6 0 -19 -9 -31 -20 -12 -11 -40 -32 -62 -47 -23 -15 -43 -30 -46 -33
-3 -3 -21 -17 -40 -30 -19 -14 -42 -30 -50 -37 -8 -7 -53 -40 -100 -74 -47
-34 -104 -76 -127 -93 -23 -17 -52 -39 -65 -48 -12 -9 -77 -56 -143 -105 -66
-49 -145 -106 -175 -128 -30 -22 -57 -42 -60 -45 -3 -3 -45 -35 -95 -70 -94
-67 -106 -77 -130 -98 -7 -6 -18 -12 -23 -12 -6 0 -12 -4 -14 -8 -3 -7 -643
-483 -711 -528 -31 -21 -65 -21 -79 -1 -5 8 -11 127 -9 182 1 48 3 332 2 403
0 9 0 53 0 97 0 44 0 87 0 95 -3 146 -1 262 4 270 3 5 3 10 -2 10 -9 0 -8 162
0 184 3 8 3 17 0 20 -4 4 -6 332 -2 451 0 6 0 39 0 75 -1 36 -1 72 0 80 0 8
-1 45 -2 81 -1 36 1 71 5 78 4 6 4 11 -1 11 -4 0 -7 66 -5 147 1 82 2 157 2
168 -4 431 -4 565 3 565 5 0 5 5 2 10 -4 6 -8 52 -9 103 -3 99 -12 131 -48
172 -22 26 -180 125 -199 125 -5 0 -9 5 -9 10 0 6 -4 10 -9 10 -7 0 -58 29
-179 101 -15 9 -43 25 -62 36 -19 11 -58 34 -86 51 -28 18 -56 32 -63 32 -6 0
-11 3 -11 8 0 4 -17 16 -37 27 -21 11 -77 44 -126 73 -48 28 -92 52 -97 52 -6
0 -10 5 -10 10 0 6 -4 10 -10 10 -5 0 -39 18 -75 40 -36 22 -70 40 -75 40 -6
0 -10 5 -10 10 0 6 -4 10 -9 10 -9 0 -238 132 -258 150 -7 5 -14 10 -17 10 -4
0 -431 249 -589 344 -18 10 -52 30 -77 44 -25 14 -61 36 -80 49 -19 12 -40 23
-46 23 -7 0 -14 4 -16 8 -1 5 -32 25 -68 46 -36 20 -72 41 -80 46 -8 5 -44 26
-80 47 -36 21 -74 44 -85 50 -11 7 -33 19 -50 28 -62 32 -161 97 -177 116 -26
31 -8 55 67 90 35 16 65 29 68 29 2 0 35 14 73 32 38 17 74 33 79 34 6 1 40
16 78 33 37 17 72 31 77 31 6 0 10 4 10 8 0 5 6 9 13 9 6 0 43 14 80 31 38 18
70 32 72 32 3 0 28 11 57 24 120 54 169 75 288 126 69 29 129 57 135 62 5 4
17 8 27 8 10 0 18 4 18 10 0 5 3 9 8 8 4 -1 29 8 56 20 27 12 55 22 62 22 8 0
14 5 14 11 0 5 5 7 10 4 6 -3 10 -1 10 4 0 6 3 10 8 9 4 -1 25 6 47 16 56 25
98 43 110 46 6 2 44 19 85 38 70 32 118 53 130 57 14 5 63 27 135 60 44 20 85
38 90 39 6 2 37 15 70 30 33 15 65 28 70 29 6 1 12 4 15 7 5 6 216 99 235 104
9 3 31 12 145 63 117 53 189 83 199 83 6 0 11 5 11 12 0 6 3 9 6 6 3 -3 17 -3
32 1 29 8 79 6 126 -4z"/>
</g>
</svg>
