<svg xmlns="http://www.w3.org/2000/svg" viewBox="0 0 850.39 850.39"><title>AOE-Logo</title><rect width="850.39" height="850.39" style="fill:none"/><path d="M429.77,357a2,2,0,0,0-1.7,1.2l-39.5,108.4a.84.84,0,0,0,.83,1.2H418a1.79,1.79,0,0,0,1.62-1.22l5.2-18a1.79,1.79,0,0,1,1.62-1.22h35.42a1.79,1.79,0,0,1,1.62,1.22l5.2,18a1.81,1.81,0,0,0,1.63,1.22h30a.83.83,0,0,0,.83-1.19L461.24,358.14a2,2,0,0,0-1.71-1.19Zm25.74,63.69a.86.86,0,0,1-.86,1.21H433.86a.85.85,0,0,1-.85-1.21l11-31.46c.23-.66.6-.66.83,0Z" style="fill:#7a8991"/><path d="M555.5,355.53c-33.75,0-48.8,17.41-48.8,56.45,0,38.69,15.5,56.72,48.8,56.72,34.11,0,48.67-17,48.67-56.72,0-39-15-56.45-48.67-56.45m.14,87.48c-13.57,0-19.25-4.32-19.25-31,0-27.71,6.12-30.74,19.11-30.74s19.1,3,19.1,30.74c0,26.72-5.58,31-19,31" style="fill:#7a8991"/><rect x="622.05" y="441.98" width="87.11" height="25.69" rx="1.24" style="fill:#7a8991"/><rect x="622.03" y="356.95" width="87.11" height="25.68" rx="1.24" style="fill:#7a8991"/><rect x="622.03" y="399.47" width="87.11" height="25.68" rx="1.24" style="fill:#7a8991"/><path d="M350.09,354.68a3.58,3.58,0,0,1,2.07,3.61L337,465.69a7.56,7.56,0,0,1-2.44,4.24L249.3,536.55a3.57,3.57,0,0,1-4.16,0L160,469.93a7.52,7.52,0,0,1-2.45-4.24L142.26,358.28a3.57,3.57,0,0,1,2.07-3.6l100.54-41.09a7.42,7.42,0,0,1,4.88,0Zm-100.36-9.19a7,7,0,0,0-4.84,0L178.7,374.15c-1.33.58-1.39,1.65-.14,2.38l66.32,38.63a5.09,5.09,0,0,1,2.28,4l0,76c0,1.46,1,1.94,2.14,1.09l57.54-42a6.93,6.93,0,0,0,2.43-4.17l8.34-72.09a3.8,3.8,0,0,0-2.12-3.67Z" style="fill:#7a8991;fill-rule:evenodd"/></svg>