<?xml version="1.0" encoding="utf-8"?>
<!-- Generator: Adobe Illustrator 25.1.0, SVG Export Plug-In . SVG Version: 6.00 Build 0)  -->
<svg version="1.1" id="Layer_1" xmlns="http://www.w3.org/2000/svg" xmlns:xlink="http://www.w3.org/1999/xlink" x="0px" y="0px"
	 viewBox="0 0 96.8 38.1" style="enable-background:new 0 0 96.8 38.1;" xml:space="preserve">
<style type="text/css">
	.st0{fill-rule:evenodd;clip-rule:evenodd;fill:#173D7A;}
</style>
<path class="st0" d="M18.4,5.5c-0.2-0.1-0.6-0.1-0.8,0L6.2,10.4c-0.2,0.1-0.2,0.3,0,0.4l11.3,6.6c0.2,0.1,0.4,0.4,0.4,0.7l0,12.9
	c0,0.2,0.2,0.3,0.4,0.2l9.8-7.1c0.2-0.1,0.4-0.5,0.4-0.7L30,11c0-0.2-0.1-0.5-0.4-0.6L18.4,5.5z M35.5,7.1c0.2,0.1,0.4,0.4,0.4,0.6
	l-2.6,18.3c0,0.2-0.2,0.6-0.4,0.7L18.3,38c-0.2,0.2-0.5,0.2-0.7,0L3,26.7c-0.2-0.2-0.4-0.5-0.4-0.7L0,7.7c0-0.2,0.1-0.5,0.4-0.6
	l17.2-7c0.2-0.1,0.6-0.1,0.8,0L35.5,7.1z M53.5,18.3l-1.8-5.3c0-0.1-0.1-0.1-0.1,0l-1.9,5.3c0,0.1,0,0.2,0.1,0.2h3.6
	C53.5,18.5,53.5,18.4,53.5,18.3z M49.1,7.4h5.1c0.1,0,0.3,0.1,0.3,0.2l6.8,18.4c0,0.1,0,0.2-0.1,0.2H56c-0.1,0-0.2-0.1-0.3-0.2
	L54.9,23c0-0.1-0.2-0.2-0.3-0.2h-6c-0.1,0-0.2,0.1-0.3,0.2l-0.9,3.1c0,0.1-0.2,0.2-0.3,0.2h-4.9c-0.1,0-0.2-0.1-0.1-0.2l6.7-18.4
	C48.9,7.5,49,7.4,49.1,7.4z M70.6,22.1c2.3,0,3.2-0.7,3.2-5.3c0-4.7-1-5.2-3.3-5.2c-2.2,0-3.3,0.5-3.3,5.2
	C67.3,21.3,68.3,22.1,70.6,22.1z M70.6,7.2c5.7,0,8.3,3,8.3,9.6c0,6.8-2.5,9.6-8.3,9.6c-5.7,0-8.3-3.1-8.3-9.6
	C62.3,10.2,64.8,7.2,70.6,7.2z M82,26.1v-3.9c0-0.1,0.1-0.2,0.2-0.2h14.5c0.1,0,0.2,0.1,0.2,0.2v3.9c0,0.1-0.1,0.2-0.2,0.2H82.2
	C82,26.3,82,26.2,82,26.1z M82.2,7.4h14.5c0.1,0,0.2,0.1,0.2,0.2v3.9c0,0.1-0.1,0.2-0.2,0.2H82.2c-0.1,0-0.2-0.1-0.2-0.2V7.7
	C82,7.5,82,7.4,82.2,7.4z M82,18.8v-3.9c0-0.1,0.1-0.2,0.2-0.2h14.5c0.1,0,0.2,0.1,0.2,0.2v3.9c0,0.1-0.1,0.2-0.2,0.2H82.2
	C82,19,82,18.9,82,18.8z"/>
</svg>
